<svg xmlns="http://www.w3.org/2000/svg" viewBox="0 0 1200 630" role="img" aria-labelledby="title desc">
  <title id="title">1人親方のホームページ作成</title>
  <desc id="desc">作業着の男性がノートパソコンで仕事用ホームページを作っている手描き風イラスト</desc>
  <rect width="1200" height="630" fill="#102744"/>
  <rect x="90" y="76" width="1020" height="478" rx="30" fill="#fff7e8"/>
  <rect x="128" y="418" width="944" height="76" rx="18" fill="#f0d9a3"/>
  <path d="M144 504h912" stroke="#d59f2f" stroke-width="14" stroke-linecap="round"/>

  <rect x="674" y="128" width="336" height="236" rx="20" fill="#102744" stroke="#0b1b31" stroke-width="10"/>
  <rect x="710" y="166" width="264" height="158" rx="12" fill="#fffaf0"/>
  <path d="M746 210h116M746 252h190M746 294h136" stroke="#102744" stroke-width="12" stroke-linecap="round"/>
  <path d="M890 218l-38 38 38 38M932 218l38 38-38 38" fill="none" stroke="#d59f2f" stroke-width="12" stroke-linecap="round" stroke-linejoin="round"/>
  <rect x="782" y="378" width="122" height="22" rx="8" fill="#102744"/>
  <rect x="1002" y="112" width="106" height="80" rx="18" fill="#f7dda0" stroke="#0b1b31" stroke-width="8"/>
  <path d="M1055 134v36M1036 152h38" stroke="#102744" stroke-width="9" stroke-linecap="round"/>
  <circle cx="1038" cy="414" r="42" fill="#d59f2f" stroke="#0b1b31" stroke-width="8"/>
  <path d="M1016 414h44M1038 392v44" stroke="#102744" stroke-width="8" stroke-linecap="round"/>

  <path d="M314 354c-44 28-72 78-78 140h270c-7-62-36-112-80-140-30 22-82 22-112 0z" fill="#ffffff" stroke="#0b1b31" stroke-width="10" stroke-linejoin="round"/>
  <path d="M286 424h166" stroke="#d59f2f" stroke-width="18" stroke-linecap="round"/>
  <circle cx="370" cy="248" r="86" fill="#f8d9b3" stroke="#0b1b31" stroke-width="10"/>
  <path d="M292 226c4-62 48-98 104-92 44 5 72 32 88 78-16-8-40-10-64-6-26 4-54 3-80-6-22-8-38 2-48 26z" fill="#24344d" stroke="#0b1b31" stroke-width="9" stroke-linejoin="round"/>
  <path d="M306 238c-22 0-38 17-38 40 0 22 16 40 38 40M434 238c22 0 38 17 38 40 0 22-16 40-38 40" fill="#f8d9b3" stroke="#0b1b31" stroke-width="10" stroke-linecap="round"/>
  <circle cx="338" cy="270" r="8" fill="#0b1b31"/>
  <circle cx="402" cy="270" r="8" fill="#0b1b31"/>
  <path d="M370 278v26" stroke="#0b1b31" stroke-width="7" stroke-linecap="round"/>
  <path d="M342 326c20 18 58 18 78 0" fill="none" stroke="#0b1b31" stroke-width="8" stroke-linecap="round"/>

  <rect x="148" y="424" width="168" height="58" rx="12" fill="#102744"/>
  <path d="M176 454h108" stroke="#fffaf0" stroke-width="10" stroke-linecap="round"/>
  <rect x="472" y="430" width="128" height="50" rx="10" fill="#d59f2f"/>
  <path d="M496 455h78" stroke="#102744" stroke-width="9" stroke-linecap="round"/>
  <path d="M134 432l70-70M186 448l70-70" stroke="#d59f2f" stroke-width="14" stroke-linecap="round"/>
</svg>
