<svg xmlns="http://www.w3.org/2000/svg" viewBox="0 0 1200 700" role="img" aria-labelledby="title desc">
  <title id="title">職人事業主のデジタル最初の一歩</title>
  <desc id="desc">塗装道具を持った職人事業主がノートパソコンを見る手描き風アイキャッチ</desc>
  <rect width="1200" height="700" fill="#f7f2e8"/>
  <rect x="0" y="500" width="1200" height="200" fill="#102744"/>
  <path d="M110 470 L250 240 L390 470 Z" fill="#fffaf0" stroke="#102744" stroke-width="12" stroke-linejoin="round"/>
  <rect x="210" y="375" width="80" height="125" fill="#d39f31" stroke="#102744" stroke-width="9"/>
  <circle cx="560" cy="245" r="58" fill="#ffd7b0" stroke="#102744" stroke-width="10"/>
  <path d="M505 238 C525 165 620 175 638 245" fill="#102744"/>
  <rect x="485" y="315" width="160" height="175" rx="34" fill="#d39f31" stroke="#102744" stroke-width="10"/>
  <path d="M480 380 L380 455 M645 380 L735 455" stroke="#102744" stroke-width="14" stroke-linecap="round"/>
  <path d="M350 420 l90 -90 l45 45 l-90 90z" fill="#fffaf0" stroke="#102744" stroke-width="10" stroke-linejoin="round"/>
  <path d="M325 450 l62 62" stroke="#d39f31" stroke-width="24" stroke-linecap="round"/>
  <rect x="735" y="330" width="310" height="165" rx="24" fill="#102744" stroke="#d39f31" stroke-width="12"/>
  <rect x="780" y="370" width="220" height="70" rx="10" fill="#fffaf0"/>
  <path d="M800 468 h180" stroke="#d39f31" stroke-width="13" stroke-linecap="round"/>
</svg>
